# xmcd CD database file
#
# Track frame offsets:
#	150
#	8250
#	26625
#	37273
#	56323
#	65997
#	74725
#	92449
#	117949
#	123640
#	138715
#	144790
#	172699
#	184774
#	203524
#
# Disc length: 3055 seconds
#
# Revision: 0
# Processed by: cddbd v1.5.2PL0 Copyright (c) Steve Scherf et al.
# Submitted via: CDex 1.70beta2
#
DISCID=d00bed0f
DTITLE=ぴずやの独房 - 冥府の衣は桜色
DYEAR=2009
DGENRE=東方アレンジ
TTITLE0=縹渺とした斎戒沐浴の時
TTITLE1=孤影蕭然たる湖上の精
TTITLE2=待ち遠しき花紅柳緑
TTITLE3=マニキュアを纏った雪月風花を駆ける黒猫
TTITLE4=微睡むアリス、夙夜夢寐、命が消える出来事
TTITLE5=西施捧心、街燈に寂しく照らされて
TTITLE6=夢の中の春風駘蕩たる丘
TTITLE7=忘らるる万古千秋に在り続ける都
TTITLE8=三手が刻む寂滅為楽
TTITLE9=一念を宿した純一無雑な少女
TTITLE10=白玉楼中の主の失われた記憶に捧げるカデンツァ
TTITLE11=抜け落ちた鬼哭啾啾たる生前の声
TTITLE12=薪、尽きて火、滅ぶ
TTITLE13=識閾に見た新しい天地開闢
TTITLE14=レコードに刻まれた桜花爛漫たる祈り
EXTD=YEAR: 2009
EXTT0=
EXTT1=
EXTT2=
EXTT3=
EXTT4=
EXTT5=
EXTT6=
EXTT7=
EXTT8=
EXTT9=
EXTT10=
EXTT11=
EXTT12=
EXTT13=
EXTT14=
PLAYORDER=
